<?xml version="1.0" encoding="UTF-8" standalone="no"?>
<!-- Created with Inkscape (http://www.inkscape.org/) -->

<svg
   width="1431.9799"
   height="1031.2269"
   viewBox="0 0 1431.9799 1031.2269"
   version="1.1"
   id="svg1"
   xml:space="preserve"
   xmlns="http://www.w3.org/2000/svg"
   xmlns:svg="http://www.w3.org/2000/svg"><defs
     id="defs1" /><g
     id="layer1"
     transform="translate(-233.21587,-12.209307)"><path
       d="M 283.39269,44.904571 337.0871,165.69374 c 35.7964,80.51838 58.16904,147.63642 67.11823,201.33087 8.94755,53.69442 13.01467,107.36558 13.01467,161.06002 0,53.27282 -4.06712,106.96726 -13.01467,160.66167 -8.94772,53.69461 -31.32183,120.78921 -67.11823,201.33086 -35.79622,80.51836 -53.69441,120.78924 -53.69441,120.78924 0,0 53.69441,0 161.06001,0 107.36556,0 187.90723,0 241.58766,0 53.27288,0 121.60907,-4.4738 204.58714,-13.4215 82.55636,-8.94775 167.5727,-31.32183 255.0093,-67.11807 87.0307,-35.79641 166.3541,-80.12005 237.9281,-133.81448 71.5926,-53.6946 129.7382,-111.84019 174.4835,-174.48363 44.7456,-62.64363 67.1182,-93.94199 67.1182,-93.94199 0,0 -22.3692,-31.32179 -67.1182,-93.94181 C 1513.3031,371.5013 1455.1575,313.35574 1383.5649,259.66129 1311.9723,206.38848 1232.6721,161.24473 1145.6368,125.84667 1058.1839,90.050431 973.19099,67.677616 890.6275,58.728615 808.07118,49.780891 739.7348,45.307122 686.04036,45.307122 c -53.69444,0 -134.2128,0 -241.58766,0 z"
       style="font-style:normal;font-variant:normal;font-weight:normal;font-stretch:normal;letter-spacing:normal;word-spacing:normal;text-anchor:start;fill:#ffffff;fill-opacity:0;stroke:#000000;stroke-width:65.1395;stroke-linecap:square;stroke-linejoin:miter;stroke-miterlimit:10.433;stroke-dasharray:none;stroke-dashoffset:0;stroke-opacity:1"
       id="path2131" /></g></svg>
