<?xml version="1.0" encoding="utf-8"?><!DOCTYPE svg PUBLIC "-//W3C//DTD SVG 1.1//EN" "http://www.w3.org/Graphics/SVG/1.1/DTD/svg11.dtd"><svg version="1.1" xmlns="http://www.w3.org/2000/svg" xmlns:xlink="http://www.w3.org/1999/xlink" width="32" height="32" viewBox="0 0 32 32" data-tags="lamp,light"><g fill="#444" transform="scale(0.03125 0.03125)"><path d="M681.76 300.96c17.056-4.608 27.2-22.112 22.624-39.2-4.576-17.088-22.112-27.232-39.2-22.624l-322.912 99.36c-17.088 4.576-27.2 22.112-22.656 39.2 4.576 17.056 22.112 27.232 39.2 22.624l26.656-8.192 30.528 55.616h-32c-35.328 0-64 28.672-64 64v133.344l64 90.656h256l64-90.656v-133.344c0-35.328-28.672-64-64-64h-32l64.48-143.936 9.28-2.848zM544 447.744h-64l-39.776-72.448 158.016-48.64-54.24 121.088zM665.184 143.168l-322.912 99.36c-17.088 4.576-27.2 22.112-22.656 39.2 4.576 17.056 22.112 27.232 39.2 22.624l322.912-99.36c17.056-4.608 27.2-22.112 22.624-39.2s-22.112-27.232-39.168-22.624zM358.816 208.352l322.912-99.36c17.056-4.608 27.2-22.112 22.624-39.2-4.576-17.088-22.112-27.232-39.2-22.624l-322.88 99.36c-17.088 4.576-27.2 22.112-22.656 39.2 4.576 17.056 22.144 27.2 39.2 22.624zM624 767.744h-224c-8.832 0-16 7.168-16 16s7.168 16 16 16h224c8.8 0 16-7.168 16-16s-7.2-16-16-16zM624 831.744h-224c-8.832 0-16 7.168-16 16s7.168 16 16 16h224c8.8 0 16-7.168 16-16s-7.2-16-16-16zM624 895.744h-224c-8.832 0-16 7.168-16 16s7.168 16 16 16h224c8.8 0 16-7.168 16-16s-7.2-16-16-16zM464 959.744c-3.232 26.304 21.504 48 48 48s48-21.504 48-48c0 1.376-96 3.392-96 0zM360.672 113.792l213.76-66.976c16.864-5.28 26.24-23.264 20.96-40.096-5.28-16.864-23.232-26.272-40.096-20.992l-213.76 66.976c-16.864 5.28-26.24 23.264-20.96 40.128 5.28 16.832 23.232 26.24 40.096 20.96z" /></g></svg>